<svg xmlns="http://www.w3.org/2000/svg" xmlns:xlink="http://www.w3.org/1999/xlink" width="251.575" height="96.136" viewBox="0 0 251.575 96.136"><defs><style>.a{fill:url(#a);}.b{fill:#80ffff;mix-blend-mode:overlay;}.b,.c,.d{isolation:isolate;}.c{opacity:0.75;mix-blend-mode:color-dodge;fill:url(#b);}.d{fill:#e9628b;mix-blend-mode:screen;}</style><linearGradient id="a" x1="0.185" y1="0.42" x2="0.998" y2="0.632" gradientUnits="objectBoundingBox"><stop offset="0" stop-color="#0f257b"/><stop offset="0.12" stop-color="#223994"/><stop offset="0.725" stop-color="#4174ee"/><stop offset="1" stop-color="#223994"/></linearGradient><linearGradient id="b" y1="0.5" x2="1" y2="0.5" gradientUnits="objectBoundingBox"><stop offset="0" stop-color="#007bff"/><stop offset="0.253" stop-color="#2665ff"/><stop offset="0.763" stop-color="#6f3dff"/><stop offset="1" stop-color="#8c2eff"/></linearGradient></defs><g transform="translate(778.056 -135.615)"><path class="a" d="M-778.056,188.918c54.08-.244,51.133,24.858,59.84,24.858,7.541,0,5.075-16.785,25.013-16.308,22.125.53,16.54,35.266,29.628,35.266,12.041,0,8.957-32.9,26.3-33.723,19.147-.905,16.42,16.736,25.977,16.91s8.655-17.024,22.581-17.27c7.021-.124,10.7,3.95,13.872,6.369,10.3,7.86,16.376-14.022,29-16.338v-.07c-12.62-2.316-18.7-24.2-29-16.338-3.171,2.42-6.851,6.493-13.872,6.369-13.926-.246-13.025-17.444-22.581-17.27s-6.83,17.816-25.977,16.91c-17.342-.82-14.258-33.724-26.3-33.724-13.087,0-7.534,36.489-29.628,35.266-20.6-1.14-17.472-16.309-25.013-16.308-8.707,0-5.76,25.1-59.84,24.858Z" transform="translate(0 -4.448)"/><path class="b" d="M-659.935,231.751c-5.4,0-8.089-7.42-11.2-16.012-4.262-11.76-9.092-25.09-22.03-25.319-14.952-.266-18.931,5.843-21.837,10.3-1.782,2.734-3.321,5.1-6.733,5.1-3.742,0-5.429-2.755-7.564-6.242-3.68-6.013-8.681-14.183-27.953-14.407h-1.781a.37.37,0,0,1-.377-.358.368.368,0,0,1,.372-.362c.612-.008,1.212-.009,1.8,0,20.627-.13,25.655-7.9,29.334-13.588,2.071-3.2,3.708-5.731,7.437-5.731,3.448,0,5.018,2.174,6.836,4.691,3.05,4.222,6.846,9.479,21.192,9.522h.064c13.935,0,18.017-13.729,21.62-25.844,2.854-9.6,5.319-17.884,12.091-17.884,6.146,0,8.37,7.915,10.944,17.079,3.447,12.269,7.353,26.174,21.453,26.649,10.557.351,14.4-7.58,17.784-14.581,2.536-5.239,4.931-10.187,9.844-10.239h.088c5.132,0,7.625,4.84,10.265,9.963,3.09,6,6.592,12.794,15.025,12.881a28.322,28.322,0,0,0,14.093-3.482c.539-.262,1.057-.514,1.563-.746,8.594-3.932,14.353.058,20.451,4.282,4.714,3.266,9.588,6.643,16.171,6.643h.03a.369.369,0,0,1,.377.36.369.369,0,0,1-.377.361c-6.387.01-11.164,3.814-15.782,7.494-6.415,5.109-12.474,9.935-22.156,4.79-.439-.233-.887-.482-1.352-.741-3.278-1.823-7.343-4.09-14.284-4.01-8.431.1-11.57,6.248-14.605,12.2-2.475,4.849-4.813,9.431-9.935,9.431h-.1c-4.874-.059-6.949-4.357-9.352-9.335-3.179-6.585-6.781-14.05-17.978-14.192h-.244c-12.831,0-17.271,12.987-21.193,24.455C-651.039,223.927-653.714,231.751-659.935,231.751Zm-34.17-42.06c.313,0,.629,0,.952.008,13.464.238,18.6,14.414,22.729,25.8,3.019,8.331,5.627,15.527,10.489,15.527,5.673,0,8.27-7.593,11.276-16.385,4-11.7,8.535-24.952,21.9-24.952h.26c11.673.148,15.543,8.168,18.653,14.612,2.3,4.756,4.277,8.863,8.676,8.916h.094c4.65,0,6.787-4.185,9.258-9.026,2.989-5.858,6.379-12.5,15.274-12.6l.373,0c6.908,0,11,2.275,14.3,4.11.46.256.9.5,1.339.734,9.231,4.9,15.1.232,21.307-4.714,3.828-3.049,7.762-6.182,12.661-7.265-5.069-.933-9.108-3.732-13.039-6.455-5.911-4.1-11.493-7.963-19.683-4.216-.5.229-1.013.478-1.547.738a28.926,28.926,0,0,1-14.443,3.56c-8.9-.092-12.508-7.1-15.694-13.283-2.657-5.157-4.953-9.6-9.667-9.56-4.437.048-6.629,4.577-9.168,9.821-3.41,7.045-7.267,15.009-17.773,15.01-.238,0-.478,0-.722-.012-14.658-.494-18.814-15.292-22.155-27.182-2.494-8.879-4.648-16.546-10.216-16.546-6.2,0-8.595,8.045-11.365,17.361-3.675,12.36-7.842,26.367-22.344,26.367h-.068c-14.74-.045-18.826-5.7-21.81-9.834-1.767-2.447-3.163-4.379-6.215-4.379-3.309,0-4.772,2.261-6.8,5.389-3.357,5.187-7.808,12.068-23.577,13.613,14.49,1.772,18.868,8.925,22.194,14.36,2.092,3.416,3.6,5.885,6.912,5.885,2.993,0,4.361-2.1,6.093-4.757C-712.706,195.832-708.7,189.691-694.105,189.691Z" transform="translate(-9.27)"/><path class="c" d="M-523.411,209.3c-8.061.029-9.1-3.869-15.083-3.916a14.436,14.436,0,0,0-3.724.472c-3.1.766-6.39,2.235-14.7,2.633-17.124.818-15.964-20.456-20.486-20.456-4.809,0-1.5,19.6-18.342,20.609-11.316.679-10.638-6.744-15.84-6.744-4.663,0-5.022,6.718-14.316,6.8a69.114,69.114,0,0,1-10.762-.569c-7.565-1.131-7.324-7.2-10.63-7.273-3.734-.081-4.5,8.451-17.231,7.629-17.117-1.1-15.522-26.854-20.044-26.854-4.809,0-1.947,26-18.784,27.006-11.316.679-11.081-6.744-16.282-6.744-4.663,0-4.58,6.718-13.874,6.8s-15.118-2.727-20.8-2.708c-7.022.023-10,3.074-16.347,3.307-.448.017-.448.051,0,.067,6.349.234,9.325,3.285,16.347,3.311,5.684.019,11.5-2.792,20.8-2.711s9.21,6.806,13.874,6.806c5.2,0,4.965-6.8,16.282-6.743,15.743.081,13.7,23.6,18.9,23.6,5.553,0,2.114-23.908,19.93-23.448,13.783.356,13.687,9.36,17.231,9.374,3.7.015,4.82-7.509,10.818-8.559a90.809,90.809,0,0,1,10.573-1.028c9.294.084,9.653,6.806,14.316,6.806,5.2,0,4.525-6.522,15.84-6.743,15.322-.3,13.257,19.854,18.456,19.854,5.553,0,1.878-20.558,20.372-19.7,8.319.384,11.691,2.748,14.837,4.041a9.309,9.309,0,0,0,3.742.808c5.982-.047,5.953-5.68,14.93-5.661C-522.824,209.371-522.824,209.3-523.411,209.3Z" transform="translate(-3.51 -25.018)"/><path class="d" d="M-541.942,205.63c-13.484.059-17.491-11.638-27.5-11.735-8.437-.077-11.883,10.639-31.079,10.053-30.885-.942-26.02-29.976-33.524-29.976-7.827,0-5.8,29.034-24.234,29.034-10.937,0-8.536-11.894-13.02-11.843s-2.561,12.285-15.533,11.843c-11.564-.395-8.318-18.258-16.073-18.258-7.8,0-5.554,19.639-19.142,19.639-15.556,0-19.159-5.653-28.667-5.614-11.747.048-16.725,6.374-27.345,6.858v.139c10.621.485,15.6,6.811,27.345,6.864,9.508.039,13.111-5.621,28.667-5.621,13.109,0,11.341,21.019,19.142,21.019,7.9,0,4.8-19.338,16.073-19.278,13.93.074,11.13,11.867,15.533,11.927,4.478.061,2.893-12,13.433-11.927,18.648.131,13.931,29.117,23.821,29.117,9.42,0,2.2-29.707,33.524-30.418,19.2-.436,22.641,10.13,31.079,10.053,10.006-.1,12.481-11.776,27.5-11.735C-540.959,205.772-540.959,205.626-541.942,205.63Z" transform="translate(0 -21.428)"/></g></svg>