<svg xmlns="http://www.w3.org/2000/svg" xmlns:xlink="http://www.w3.org/1999/xlink" width="1440" height="900" viewBox="0 0 1440 900"><defs><style>.a{fill:none;}.b{clip-path:url(#a);}.c{opacity:0.8;}.c,.d{mix-blend-mode:lighten;isolation:isolate;}.d{fill:url(#b);}.e{fill:url(#c);}.f{fill:url(#d);}.g{fill:url(#e);}.h{fill:url(#f);}.i{fill:url(#g);}.j{fill:url(#h);}.k{fill:url(#i);}.l{fill:url(#j);}.m{fill:url(#k);}.n{fill:url(#l);}.o{fill:url(#m);}.p{fill:url(#n);}.q{opacity:0.7;fill:url(#o);}</style><clipPath id="a"><rect class="a" width="1440" height="900"/></clipPath><linearGradient id="b" x1="7.035" y1="-1.946" x2="6.326" y2="-1.197" gradientUnits="objectBoundingBox"><stop offset="0" stop-color="#183372"/><stop offset="1" stop-color="#020230"/></linearGradient><linearGradient id="c" x1="11.019" y1="1.45" x2="10.064" y2="1.198" xlink:href="#b"/><linearGradient id="d" x1="4.034" y1="-1.02" x2="4.677" y2="-1.02" xlink:href="#b"/><linearGradient id="e" x1="6.215" y1="0.333" x2="7.215" y2="0.333" xlink:href="#b"/><linearGradient id="f" x1="14.272" y1="0.754" x2="13.9" y2="1.237" xlink:href="#b"/><linearGradient id="g" x1="9.687" y1="0.448" x2="10.687" y2="0.448" xlink:href="#b"/><linearGradient id="h" x1="5.801" y1="0.998" x2="6.801" y2="0.998" xlink:href="#b"/><linearGradient id="i" x1="6.134" y1="2.579" x2="7.134" y2="2.579" xlink:href="#b"/><linearGradient id="j" x1="11.392" y1="0.047" x2="10.609" y2="-0.43" xlink:href="#b"/><linearGradient id="k" x1="10.529" y1="-2.431" x2="11.529" y2="-2.431" xlink:href="#b"/><linearGradient id="l" x1="11.026" y1="-3.377" x2="10.172" y2="-2.424" xlink:href="#b"/><linearGradient id="m" x1="7.466" y1="0.841" x2="8.466" y2="0.841" xlink:href="#b"/><linearGradient id="n" x1="7.895" y1="3.596" x2="8.548" y2="2.635" xlink:href="#b"/><linearGradient id="o" x1="0.5" y1="1" x2="0.5" gradientUnits="objectBoundingBox"><stop offset="0" stop-color="#020230"/><stop offset="0.274" stop-color="#030434"/><stop offset="0.555" stop-color="#060d40"/><stop offset="0.839" stop-color="#0c1a54"/><stop offset="1" stop-color="#112564"/></linearGradient></defs><g transform="translate(-49.108 -50)"><g transform="translate(49.108 50)"><g class="b"><g class="c" transform="translate(0 0)"><path class="d" d="M876.9,602.244V271.3L372.813,602.244Z" transform="translate(563.102 297.756)"/><path class="e" d="M347.458,592.814,569.024,50H49.109V404.389Z" transform="translate(-49.109 -50)"/><path class="f" d="M717.863,618.28h72L1138.6,389.323,152.3,261.094Z" transform="translate(146.051 281.719)"/><path class="g" d="M845.926,542.4l-130.9-378.711L307.051,472.337Z" transform="translate(438.728 128.647)"/><path class="h" d="M491.819,363.858,373.864,50,152.3,592.814Z" transform="translate(146.051 -50)"/><path class="i" d="M599.728,459.181,491.819,172.056,152.3,401.011Z" transform="translate(146.051 141.802)"/><path class="j" d="M454.8,650.984,862.773,342.331,228.931,50Z" transform="translate(290.984 -50)"/><path class="k" d="M862.773,342.331,761.731,50h-532.8Z" transform="translate(290.984 -50)"/><path class="l" d="M550.488,504.468,49.109,187.818V733.429Z" transform="translate(-49.109 166.571)"/><path class="m" d="M606.816,539.92,244.282,310.96,211.014,539.92Z" transform="translate(257.098 360.079)"/><path class="n" d="M517.221,539.92,550.488,310.96,49.109,539.92Z" transform="translate(-49.109 360.079)"/><path class="o" d="M645.15,721.043,800.495,619.055V321.408L413.21,50Z" transform="translate(639.504 -50)"/><path class="p" d="M800.495,321.408V50H413.21Z" transform="translate(639.504 -50)"/></g></g></g><rect class="q" width="1440" height="900" transform="translate(49.108 50)"/></g></svg>