<svg xmlns="http://www.w3.org/2000/svg" xmlns:xlink="http://www.w3.org/1999/xlink" width="19" height="19" viewBox="0 0 19 19"><defs><style>.a{fill:#223994;}.b{clip-path:url(#a);}</style><clipPath id="a"><path class="a" d="M9.5,19A9.5,9.5,0,1,1,19,9.5,9.511,9.511,0,0,1,9.5,19Zm0-8.645c-1.919,0-5.671,1.033-5.7,2.926a6.84,6.84,0,0,0,11.4,0c-.016-1.059-1.179-1.765-2.152-2.172A10.165,10.165,0,0,0,9.5,10.355Zm0-7.505A2.85,2.85,0,1,0,12.35,5.7,2.853,2.853,0,0,0,9.5,2.85Z" transform="translate(-0.198 0.429)"/></clipPath></defs><g transform="translate(0.198 -0.429)"><path class="a" d="M9.5,19A9.5,9.5,0,1,1,19,9.5,9.511,9.511,0,0,1,9.5,19Zm0-8.645c-1.919,0-5.671,1.033-5.7,2.926a6.84,6.84,0,0,0,11.4,0c-.016-1.059-1.179-1.765-2.152-2.172A10.165,10.165,0,0,0,9.5,10.355Zm0-7.505A2.85,2.85,0,1,0,12.35,5.7,2.853,2.853,0,0,0,9.5,2.85Z" transform="translate(-0.198 0.429)"/></g></svg>