<svg xmlns="http://www.w3.org/2000/svg" xmlns:xlink="http://www.w3.org/1999/xlink" width="22.694" height="22.694" viewBox="0 0 22.694 22.694"><defs><style>.a{fill:#08154a;}.b{fill:#223994;}.c{clip-path:url(#a);}</style><clipPath id="a"><path class="a" d="M18.88,11.328H15.1V7.552H11a5.664,5.664,0,1,1,0-3.776h9.77V7.552H18.88v3.775ZM5.664,3.776A1.888,1.888,0,1,0,7.552,5.664,1.891,1.891,0,0,0,5.664,3.776Z" transform="translate(0 14.685) rotate(-45)"/></clipPath></defs><path class="b" d="M18.88,11.328H15.1V7.552H11a5.664,5.664,0,1,1,0-3.776h9.77V7.552H18.88v3.775ZM5.664,3.776A1.888,1.888,0,1,0,7.552,5.664,1.891,1.891,0,0,0,5.664,3.776Z" transform="translate(0 14.685) rotate(-45)"/></svg>