<?xml version="1.0" encoding="utf-8"?>
<!-- Generator: Adobe Illustrator 16.0.0, SVG Export Plug-In . SVG Version: 6.00 Build 0)  -->
<!DOCTYPE svg PUBLIC "-//W3C//DTD SVG 1.1//EN" "http://www.w3.org/Graphics/SVG/1.1/DTD/svg11.dtd">
<svg version="1.1" id="Layer_1" xmlns="http://www.w3.org/2000/svg" xmlns:xlink="http://www.w3.org/1999/xlink" x="0px" y="0px"
	 width="217.422px" height="52.664px" viewBox="0 0 217.422 52.664" enable-background="new 0 0 217.422 52.664"
	 xml:space="preserve">
<path fill="none" d="M52.131,7.377c-6.016-2.434-14.089,3.484-18.029,13.221c-3.938,9.738-2.251,19.605,3.765,22.037
	c3.517,1.424,7.733-0.012,11.418-3.389c0.166-0.164,0.341-0.311,0.504-0.479c2.418-2.365,4.576-5.57,6.108-9.357
	c0.003-0.008,0.006-0.018,0.009-0.025c0.021-0.047,0.043-0.094,0.063-0.141c0.214-0.529,0.397-1.059,0.579-1.59
	C59.615,18.516,57.788,9.666,52.131,7.377z"/>
<path fill="none" d="M56.732,27.121c-0.06,0.172-0.121,0.346-0.18,0.516C56.611,27.464,56.678,27.292,56.732,27.121z"/>
<linearGradient id="SVGID_1_" gradientUnits="userSpaceOnUse" x1="30.2334" y1="44.2124" x2="54.5007" y2="2.1801">
	<stop  offset="0" style="stop-color:#383C6D"/>
	<stop  offset="1" style="stop-color:#000000"/>
</linearGradient>
<path fill="url(#SVGID_1_)" d="M37.835,42.619c-6.016-2.432-7.702-12.299-3.765-22.037C38.011,10.846,46.084,4.928,52.1,7.361
	c5.657,2.289,7.484,11.139,4.416,20.277c0.002-0.006,0.004-0.012,0.006-0.018c0.059-0.17,0.12-0.344,0.18-0.516
	c3.23-10.066,1.979-20.955-5.74-26.968H50.96C41.919,1.09,33.313,7.553,29.306,17.461c-4.329,10.693-1.974,22.251,5.03,29.121
	C39.784,46,45.93,44.984,49.253,39.23C45.568,42.607,41.352,44.042,37.835,42.619z"/>
<linearGradient id="SVGID_2_" gradientUnits="userSpaceOnUse" x1="34.8623" y1="47.2495" x2="34.4297" y2="46.5002">
	<stop  offset="0" style="stop-color:#18264F"/>
	<stop  offset="1" style="stop-color:#000016"/>
</linearGradient>
<path fill="url(#SVGID_2_)" d="M34.976,47.183c-0.107-0.098-0.203-0.205-0.309-0.305c-0.114-0.107-0.239-0.203-0.351-0.313
	C34.531,46.777,34.752,46.98,34.976,47.183z"/>
<linearGradient id="SVGID_3_" gradientUnits="userSpaceOnUse" x1="34.3379" y1="46.5757" x2="34.3379" y2="46.562">
	<stop  offset="0" style="stop-color:#000015"/>
	<stop  offset="1" style="stop-color:#132452"/>
</linearGradient>
<path fill="url(#SVGID_3_)" d="M34.346,46.562c-0.01,0-0.02,0.002-0.029,0.004c0.014,0.004,0.028,0.006,0.043,0.01
	C34.354,46.57,34.35,46.566,34.346,46.562z"/>
<linearGradient id="SVGID_4_" gradientUnits="userSpaceOnUse" x1="56.5488" y1="27.6597" x2="56.5488" y2="27.6362">
	<stop  offset="0" style="stop-color:#000015"/>
	<stop  offset="1" style="stop-color:#132452"/>
</linearGradient>
<path fill="url(#SVGID_4_)" d="M56.545,27.66c0.003-0.008,0.006-0.016,0.008-0.023c-0.002,0.006-0.004,0.012-0.006,0.018
	C56.546,27.656,56.546,27.658,56.545,27.66z"/>
<linearGradient id="SVGID_5_" gradientUnits="userSpaceOnUse" x1="34.4917" y1="46.8784" x2="34.4917" y2="46.5659">
	<stop  offset="0" style="stop-color:#000015"/>
	<stop  offset="1" style="stop-color:#132452"/>
</linearGradient>
<path fill="url(#SVGID_5_)" d="M34.316,46.566c0.111,0.109,0.236,0.205,0.351,0.313c-0.104-0.098-0.205-0.203-0.308-0.303
	C34.345,46.572,34.33,46.57,34.316,46.566z"/>
<linearGradient id="SVGID_6_" gradientUnits="userSpaceOnUse" x1="42.4287" y1="52.0308" x2="69.0967" y2="5.8405">
	<stop  offset="0" style="stop-color:#000016"/>
	<stop  offset="1" style="stop-color:#08154A"/>
</linearGradient>
<path fill="url(#SVGID_6_)" d="M61.285,1.568c-3.342-1.352-6.852-1.785-10.297-1.42c0.002,0,0.003,0.002,0.004,0.004
	c6.531,6.418,8.971,16.902,5.74,26.968c-0.055,0.172-0.121,0.344-0.18,0.516c-0.002,0.008-0.005,0.016-0.008,0.023
	c0.001-0.002,0.001-0.004,0.002-0.006c-0.182,0.531-0.365,1.061-0.579,1.59c-0.02,0.047-0.042,0.094-0.063,0.141
	c-0.003,0.008-0.006,0.018-0.009,0.025c-1.532,3.787-3.69,6.992-6.108,9.357c-0.163,0.168-0.338,0.314-0.504,0.479
	c-4.216,4.131-9.491,6.732-14.938,7.316c0.004,0.004,0.009,0.008,0.014,0.014c0.103,0.1,0.203,0.205,0.308,0.303
	c1.884,1.773,4.08,3.227,6.575,4.238c12.11,4.898,26.415-2.223,31.95-15.906C78.727,21.531,73.396,6.467,61.285,1.568z"/>
<linearGradient id="SVGID_7_" gradientUnits="userSpaceOnUse" x1="31.0151" y1="25.4004" x2="31.0151" y2="18.8633">
	<stop  offset="0" style="stop-color:#231F20;stop-opacity:0"/>
	<stop  offset="0.5" style="stop-color:#231F20"/>
	<stop  offset="1" style="stop-color:#231F20;stop-opacity:0"/>
</linearGradient>
<path fill="url(#SVGID_7_)" d="M27.297,25.4h5.276c0.351-1.59,0.847-3.213,1.501-4.83c0.207-0.514,0.429-1.014,0.659-1.506
	l-5.954-0.201C28.023,21.033,27.535,23.229,27.297,25.4z"/>
<linearGradient id="SVGID_8_" gradientUnits="userSpaceOnUse" x1="29.8247" y1="32.105" x2="29.8247" y2="25.6431">
	<stop  offset="0" style="stop-color:#231F20;stop-opacity:0"/>
	<stop  offset="0.5" style="stop-color:#231F20"/>
	<stop  offset="1" style="stop-color:#231F20;stop-opacity:0"/>
</linearGradient>
<path fill="url(#SVGID_8_)" d="M32.521,25.643h-5.247c-0.223,2.193-0.189,4.361,0.082,6.462h4.624
	C31.872,30.082,32.048,27.896,32.521,25.643z"/>
<linearGradient id="SVGID_9_" gradientUnits="userSpaceOnUse" x1="34.1602" y1="18.6113" x2="34.1602" y2="12.1328">
	<stop  offset="0" style="stop-color:#231F20;stop-opacity:0"/>
	<stop  offset="0.5" style="stop-color:#231F20"/>
	<stop  offset="1" style="stop-color:#231F20;stop-opacity:0"/>
</linearGradient>
<path fill="url(#SVGID_9_)" d="M35,18.611c1.192-2.441,2.639-4.594,4.237-6.365l-7.091-0.113c-1.083,1.635-2.032,3.406-2.804,5.314
	c-0.002,0.002-0.151,0.391-0.26,0.672L35,18.611z"/>
<linearGradient id="SVGID_10_" gradientUnits="userSpaceOnUse" x1="30.5674" y1="38.8335" x2="30.5674" y2="32.8315">
	<stop  offset="0" style="stop-color:#231F20;stop-opacity:0"/>
	<stop  offset="0.5" style="stop-color:#231F20"/>
	<stop  offset="1" style="stop-color:#231F20;stop-opacity:0"/>
</linearGradient>
<path fill="url(#SVGID_10_)" d="M33.681,38.691c-0.888-1.637-1.45-3.631-1.649-5.859h-4.577c0.328,2.094,0.898,4.109,1.688,6.002
	L33.681,38.691z"/>
<path fill="#08154A" d="M93.49,32.576l-3.922-0.014l0.021-22.023h4.804l9.496,15.252v-5.918v-9.334h3.945v22.068h-4.117
	L93.535,16.199v5.916L93.49,32.576z"/>
<path fill="#08154A" d="M112.336,21.563c0-3.393,1.064-6.197,3.197-8.418c2.161-2.221,4.875-3.332,8.147-3.332
	c3.271,0,5.971,1.111,8.102,3.332c2.16,2.221,3.241,5.025,3.241,8.418c0,3.42-1.081,6.226-3.241,8.417
	c-2.131,2.221-4.831,3.33-8.102,3.33c-3.272,0-5.986-1.109-8.147-3.33C113.4,27.759,112.336,24.953,112.336,21.563z M116.478,21.563
	c0,2.369,0.69,4.291,2.07,5.761c1.381,1.471,3.092,2.205,5.133,2.205c2.04,0,3.75-0.734,5.131-2.205
	c1.38-1.47,2.07-3.392,2.07-5.761c0-2.342-0.69-4.248-2.07-5.717c-1.41-1.502-3.12-2.252-5.131-2.252
	c-2.012,0-3.722,0.75-5.133,2.252C117.168,17.314,116.478,19.221,116.478,21.563z"/>
<path fill="#08154A" d="M149.068,32.589h-4.141l-8.914-22.056h4.502l6.482,17.105h0.09l6.572-17.105h4.412L149.068,32.589z"/>
<path fill="#D51635" d="M166.128,2.926c0,0.811-0.284,1.502-0.855,2.072c-0.569,0.568-1.26,0.854-2.07,0.854
	s-1.501-0.285-2.07-0.854c-0.57-0.57-0.855-1.262-0.855-2.072s0.285-1.5,0.855-2.07c0.569-0.57,1.26-0.855,2.07-0.855
	s1.501,0.285,2.07,0.855C165.844,1.426,166.128,2.115,166.128,2.926z"/>
<rect x="161.132" y="10.533" fill="#D51635" width="4.141" height="22.056"/>
<path fill="#08154A" d="M181.032,20.305h10.973c0.063,0.25,0.114,0.553,0.156,0.906c0.041,0.355,0.062,0.711,0.062,1.064
	c0,1.438-0.218,2.791-0.656,4.063c-0.437,1.271-1.125,2.408-2.063,3.408c-1,1.063-2.199,1.887-3.595,2.469
	c-1.396,0.584-2.991,0.875-4.783,0.875c-1.626,0-3.156-0.291-4.595-0.875c-1.438-0.582-2.688-1.395-3.751-2.438
	c-1.063-1.043-1.906-2.277-2.533-3.705c-0.625-1.428-0.938-2.984-0.938-4.672s0.313-3.246,0.938-4.674
	c0.627-1.43,1.47-2.664,2.533-3.705c1.063-1.041,2.313-1.855,3.751-2.439c1.438-0.582,2.969-0.875,4.595-0.875
	c1.813,0,3.434,0.313,4.861,0.938c1.427,0.627,2.651,1.492,3.673,2.596l-2.907,2.846c-0.73-0.771-1.542-1.361-2.438-1.768
	c-0.896-0.406-1.97-0.609-3.222-0.609c-1.02,0-1.988,0.182-2.906,0.547c-0.917,0.365-1.719,0.881-2.407,1.547
	c-0.688,0.668-1.234,1.475-1.641,2.424c-0.405,0.949-0.608,2.006-0.608,3.174c0,1.166,0.203,2.225,0.608,3.172
	c0.406,0.947,0.959,1.756,1.657,2.423c0.697,0.666,1.505,1.182,2.423,1.547c0.916,0.363,1.896,0.547,2.938,0.547
	c1.188,0,2.193-0.174,3.017-0.518s1.526-0.785,2.11-1.328c0.416-0.375,0.776-0.849,1.078-1.421s0.536-1.213,0.703-1.922h-7.033
	V20.305z"/>
<path fill="#08154A" d="M194.734,21.563c0-3.393,1.064-6.197,3.196-8.418c2.16-2.221,4.877-3.332,8.146-3.332
	c3.271,0,5.972,1.111,8.104,3.332c2.161,2.221,3.241,5.025,3.241,8.418c0,3.42-1.08,6.226-3.241,8.417
	c-2.132,2.221-4.832,3.33-8.104,3.33c-3.27,0-5.986-1.109-8.146-3.33C195.799,27.759,194.734,24.953,194.734,21.563z
	 M198.875,21.563c0,2.369,0.69,4.291,2.071,5.761c1.38,1.471,3.092,2.205,5.131,2.205c2.041,0,3.752-0.734,5.133-2.205
	c1.38-1.47,2.07-3.392,2.07-5.761c0-2.342-0.69-4.248-2.07-5.717c-1.41-1.502-3.122-2.252-5.133-2.252
	c-2.01,0-3.721,0.75-5.131,2.252C199.565,17.314,198.875,19.221,198.875,21.563z"/>
<g>
	<path fill="#333333" d="M95.161,45.693c0,0.73-0.269,1.318-0.806,1.762c-0.543,0.436-1.204,0.652-1.981,0.652
		c-0.692,0-1.301-0.203-1.83-0.605c-0.528-0.404-0.894-0.957-1.097-1.658l1.027-0.418c0.069,0.248,0.167,0.475,0.29,0.676
		c0.125,0.203,0.271,0.375,0.438,0.518c0.168,0.145,0.351,0.258,0.555,0.338c0.199,0.084,0.415,0.123,0.641,0.123
		c0.488,0,0.889-0.125,1.199-0.379c0.313-0.252,0.467-0.588,0.467-1.008c0-0.35-0.128-0.646-0.385-0.896
		c-0.24-0.242-0.692-0.477-1.353-0.699c-0.668-0.242-1.084-0.404-1.246-0.49c-0.888-0.451-1.33-1.115-1.33-1.994
		c0-0.615,0.245-1.139,0.734-1.574c0.497-0.434,1.108-0.654,1.832-0.654c0.636,0,1.188,0.166,1.654,0.492
		c0.466,0.318,0.777,0.717,0.933,1.199l-1.002,0.422c-0.095-0.313-0.279-0.57-0.554-0.775c-0.276-0.207-0.613-0.311-1.009-0.311
		c-0.42,0-0.773,0.117-1.063,0.35c-0.287,0.219-0.431,0.502-0.431,0.852c0,0.287,0.113,0.537,0.339,0.746
		c0.249,0.209,0.788,0.459,1.62,0.746c0.847,0.287,1.452,0.641,1.812,1.057C94.98,44.576,95.161,45.085,95.161,45.693z"/>
	<path fill="#333333" d="M112.962,43.746c0,1.236-0.412,2.27-1.235,3.104c-0.832,0.84-1.85,1.258-3.055,1.258
		c-1.212,0-2.229-0.418-3.054-1.258c-0.823-0.834-1.236-1.867-1.236-3.104s0.413-2.27,1.236-3.102
		c0.824-0.838,1.842-1.26,3.054-1.26c1.213,0,2.231,0.426,3.055,1.271C112.55,41.49,112.962,42.517,112.962,43.746z M105.478,43.746
		c0,0.965,0.303,1.762,0.909,2.391c0.615,0.629,1.376,0.943,2.285,0.943c0.91,0,1.667-0.314,2.274-0.943
		c0.613-0.621,0.919-1.42,0.919-2.391s-0.306-1.768-0.919-2.389c-0.607-0.631-1.364-0.945-2.274-0.945
		c-0.909,0-1.67,0.314-2.285,0.945C105.78,41.986,105.478,42.783,105.478,43.746z"/>
	<path fill="#333333" d="M127.255,47.921h-4.686v-8.348h1.071v7.32h3.614V47.921z"/>
	<path fill="#333333" d="M139.496,48.107c-0.926,0-1.671-0.303-2.239-0.91c-0.566-0.598-0.851-1.393-0.851-2.377v-5.246h1.073v5.291
		c0,0.684,0.178,1.225,0.535,1.621c0.356,0.396,0.852,0.594,1.481,0.594c0.629,0,1.123-0.197,1.48-0.594s0.536-0.938,0.536-1.621
		v-5.291h1.072v5.246c0,1.008-0.279,1.809-0.839,2.4S140.436,48.107,139.496,48.107z"/>
	<path fill="#333333" d="M155.258,40.599v7.322h-1.073v-7.322h-2.331v-1.025h5.735v1.025H155.258z"/>
	<path fill="#333333" d="M168.116,47.921h-1.073v-8.348h1.073V47.921z"/>
	<path fill="#333333" d="M186.186,43.746c0,1.236-0.411,2.27-1.234,3.104c-0.833,0.84-1.85,1.258-3.056,1.258
		c-1.212,0-2.23-0.418-3.054-1.258c-0.824-0.834-1.235-1.867-1.235-3.104s0.411-2.27,1.235-3.102c0.823-0.838,1.842-1.26,3.054-1.26
		c1.213,0,2.23,0.426,3.056,1.271C185.774,41.49,186.186,42.517,186.186,43.746z M178.702,43.746c0,0.965,0.303,1.762,0.908,2.391
		c0.614,0.629,1.376,0.943,2.285,0.943s1.667-0.314,2.274-0.943c0.612-0.621,0.919-1.42,0.919-2.391s-0.307-1.768-0.919-2.389
		c-0.607-0.631-1.365-0.945-2.274-0.945s-1.671,0.314-2.285,0.945C179.005,41.986,178.702,42.783,178.702,43.746z"/>
	<path fill="#333333" d="M196.865,47.921h-1.073v-8.348h1.307l4.057,6.492h0.047l-0.047-1.609v-4.883h1.072v8.348h-1.119
		l-4.243-6.811h-0.047l0.047,1.611V47.921z"/>
	<path fill="#333333" d="M217.394,45.693c0,0.73-0.268,1.318-0.804,1.762c-0.544,0.436-1.204,0.652-1.981,0.652
		c-0.692,0-1.302-0.203-1.83-0.605c-0.529-0.404-0.895-0.957-1.096-1.658l1.026-0.418c0.069,0.248,0.167,0.475,0.291,0.676
		c0.124,0.203,0.269,0.375,0.437,0.518c0.167,0.145,0.351,0.258,0.554,0.338c0.202,0.084,0.416,0.123,0.642,0.123
		c0.49,0,0.89-0.125,1.2-0.379c0.312-0.252,0.467-0.588,0.467-1.008c0-0.35-0.128-0.646-0.385-0.896
		c-0.241-0.242-0.691-0.477-1.353-0.699c-0.669-0.242-1.085-0.404-1.247-0.49c-0.887-0.451-1.329-1.115-1.329-1.994
		c0-0.615,0.245-1.139,0.734-1.574c0.496-0.434,1.108-0.654,1.83-0.654c0.637,0,1.19,0.166,1.655,0.492
		c0.468,0.318,0.777,0.717,0.934,1.199l-1.003,0.422c-0.094-0.313-0.277-0.57-0.555-0.775c-0.275-0.207-0.611-0.311-1.008-0.311
		c-0.42,0-0.773,0.117-1.062,0.35c-0.287,0.219-0.431,0.502-0.431,0.852c0,0.287,0.112,0.537,0.338,0.746
		c0.249,0.209,0.789,0.459,1.62,0.746c0.848,0.287,1.453,0.641,1.813,1.057C217.214,44.576,217.394,45.085,217.394,45.693z"/>
</g>
<path fill="#D51635" d="M53.169,15.639c0,0.736-0.597,1.332-1.333,1.332H12.937c-0.736,0-1.333-0.596-1.333-1.332l0,0
	c0-0.736,0.597-1.334,1.333-1.334h38.899C52.572,14.305,53.169,14.902,53.169,15.639L53.169,15.639z"/>
<path fill="#D51635" d="M49.435,22.314c0,0.736-0.597,1.332-1.333,1.332H9.202c-0.736,0-1.333-0.596-1.333-1.332l0,0
	c0-0.736,0.597-1.334,1.333-1.334h38.899C48.838,20.98,49.435,21.578,49.435,22.314L49.435,22.314z"/>
<path fill="#D51635" d="M45.669,28.99c0,0.736-0.597,1.332-1.333,1.332H5.437c-0.736,0-1.333-0.596-1.333-1.332l0,0
	c0-0.736,0.597-1.334,1.333-1.334h38.899C45.072,27.656,45.669,28.253,45.669,28.99L45.669,28.99z"/>
<path fill="#D51635" d="M41.564,35.664c0,0.736-0.597,1.334-1.333,1.334H1.333C0.597,36.998,0,36.4,0,35.664l0,0
	c0-0.736,0.597-1.332,1.333-1.332h38.898C40.968,34.332,41.564,34.927,41.564,35.664L41.564,35.664z"/>
</svg>
