<svg xmlns="http://www.w3.org/2000/svg" xmlns:xlink="http://www.w3.org/1999/xlink" width="117" height="117" viewBox="0 0 117 117"><defs><style>.a{fill:#fff;}.b{fill:url(#a);}.c{fill:#e7767e;}.d{clip-path:url(#b);}</style><radialGradient id="a" cx="0.128" cy="-0.487" r="1.522" gradientTransform="translate(-0.014 -0.003) scale(0.583 0.999)" gradientUnits="objectBoundingBox"><stop offset="0" stop-color="#2b237c"/><stop offset="0.31" stop-color="#251c72"/><stop offset="1" stop-color="#223994"/></radialGradient><clipPath id="b"><path class="a" d="M39.993,51.907a6.61,6.61,0,0,1-.665-.032,6.422,6.422,0,0,1-5.709-5.135l-8.7-40.2-8.963,20.7A3.25,3.25,0,0,1,12.975,29.2H3.244a3.244,3.244,0,1,1,0-6.488h7.6L18.976,3.934a6.35,6.35,0,0,1,6.572-3.9A6.422,6.422,0,0,1,31.258,5.17l8.7,40.2,8.963-20.7A3.243,3.243,0,0,1,51.9,22.712h9.732a3.244,3.244,0,1,1,0,6.488h-7.6L45.9,47.975a6.384,6.384,0,0,1-5.907,3.932"/></clipPath></defs><g transform="translate(0.094 -0.025)"><path class="b" d="M20,0H97a20,20,0,0,1,20,20V97a20,20,0,0,1-20,20H20A20,20,0,0,1,0,97V20A20,20,0,0,1,20,0Z" transform="translate(-0.094 0.025)"/><circle class="c" cx="8" cy="8" r="8" transform="translate(71.906 29.025)"/><g transform="translate(22.782 34.037)"><g transform="translate(0 0)"><path class="a" d="M39.993,51.907a6.61,6.61,0,0,1-.665-.032,6.422,6.422,0,0,1-5.709-5.135l-8.7-40.2-8.963,20.7A3.25,3.25,0,0,1,12.975,29.2H3.244a3.244,3.244,0,1,1,0-6.488h7.6L18.976,3.934a6.35,6.35,0,0,1,6.572-3.9A6.422,6.422,0,0,1,31.258,5.17l8.7,40.2,8.963-20.7A3.243,3.243,0,0,1,51.9,22.712h9.732a3.244,3.244,0,1,1,0,6.488h-7.6L45.9,47.975a6.384,6.384,0,0,1-5.907,3.932"/></g></g></g></svg>