<svg xmlns="http://www.w3.org/2000/svg" xmlns:xlink="http://www.w3.org/1999/xlink" width="31" height="31" viewBox="0 0 31 31"><defs><style>.a{fill:url(#a);}.b{fill:url(#b);}.c{fill:url(#c);}.d{fill:url(#d);}.e{fill:url(#e);}.f{fill:none;}</style><linearGradient id="a" x1="0.5" y1="-0.057" x2="0.5" y2="0.93" gradientUnits="objectBoundingBox"><stop offset="0" stop-color="#ffb900"/><stop offset="0.166" stop-color="#ef8400"/><stop offset="0.313" stop-color="#e25c01"/><stop offset="0.429" stop-color="#db4401"/><stop offset="0.5" stop-color="#d83b01"/></linearGradient><linearGradient id="b" x1="0.862" y1="-0.022" x2="-0.158" y2="0.927" gradientUnits="objectBoundingBox"><stop offset="0" stop-color="#800600"/><stop offset="0.6" stop-color="#c72127"/><stop offset="0.728" stop-color="#c13959"/><stop offset="0.847" stop-color="#bc4b81"/><stop offset="0.942" stop-color="#b95799"/><stop offset="1" stop-color="#b85ba2"/></linearGradient><linearGradient id="c" x1="0.08" y1="0.5" x2="1.917" y2="0.5" gradientUnits="objectBoundingBox"><stop offset="0" stop-color="#f32b44"/><stop offset="0.6" stop-color="#a4070a"/></linearGradient><linearGradient id="d" x1="0.883" y1="-0.041" x2="0.667" y2="0.16" gradientUnits="objectBoundingBox"><stop offset="0" stop-opacity="0.4"/><stop offset="1" stop-opacity="0"/></linearGradient><linearGradient id="e" x1="1.329" y1="0.57" x2="0.506" y2="0.448" xlink:href="#d"/></defs><path class="a" d="M34.134,31.067l7.239-2.074a2.565,2.565,0,0,0,1.858-2.468V10.249a2.565,2.565,0,0,0-1.859-2.466L34.134,5.709,36,10.189V25.62Z" transform="translate(-17.674 -2.956)"/><path class="b" d="M15.283,24.008l-2.411,1.343A1.258,1.258,0,0,1,11,24.253V12.54a2.568,2.568,0,0,1,1.3-2.233l7.872-4.47A2.575,2.575,0,0,1,21.445,5.5h0A2.572,2.572,0,0,1,24.02,8.075v2.006l-6.4,2.3A1.99,1.99,0,0,0,16.3,14.253v8.016a1.991,1.991,0,0,1-1.022,1.739Z" transform="translate(-5.696 -2.848)"/><path class="c" d="M27.952,47v2.97a2.572,2.572,0,0,1-2.575,2.575h0a2.575,2.575,0,0,1-1.271-.338l-4.845-2.749A1.315,1.315,0,0,1,19.91,47Z" transform="translate(-9.627 -24.335)"/><path class="d" d="M15.283,24.008l-2.411,1.343A1.258,1.258,0,0,1,11,24.253V12.54a2.568,2.568,0,0,1,1.3-2.233l7.872-4.47A2.575,2.575,0,0,1,21.445,5.5h0A2.572,2.572,0,0,1,24.02,8.075v2.006l-6.4,2.3A1.99,1.99,0,0,0,16.3,14.253v8.016a1.991,1.991,0,0,1-1.022,1.739Z" transform="translate(-5.696 -2.848)"/><path class="e" d="M27.952,47v2.97a2.572,2.572,0,0,1-2.575,2.575h0a2.575,2.575,0,0,1-1.271-.338l-4.845-2.749A1.315,1.315,0,0,1,19.91,47Z" transform="translate(-9.627 -24.335)"/><rect class="f" width="31" height="31"/></svg>