<svg xmlns="http://www.w3.org/2000/svg" xmlns:xlink="http://www.w3.org/1999/xlink" width="24.041" height="24.041" viewBox="0 0 24.041 24.041"><defs><style>.a{fill:#d1d1d1;}.b{clip-path:url(#a);}</style><clipPath id="a"><path class="a" d="M20,12H16V8H11.65a6,6,0,1,1,0-4H22V8H20v4ZM6,4A2,2,0,1,0,8,6,2,2,0,0,0,6,4Z" transform="translate(0 15.556) rotate(-45)"/></clipPath></defs><path class="a" d="M20,12H16V8H11.65a6,6,0,1,1,0-4H22V8H20v4ZM6,4A2,2,0,1,0,8,6,2,2,0,0,0,6,4Z" transform="translate(0 15.556) rotate(-45)"/></svg>